<svg xmlns="http://www.w3.org/2000/svg" xmlns:xlink="http://www.w3.org/1999/xlink" width="78" height="62" viewBox="0 0 78 62">
    <defs>
        <path id="a" d="M52 54.343l25.172-25.171a1.657 1.657 0 0 0-2.344-2.344L49.657 52 52 54.343z"/>
        <path id="b" d="M36 72c7.9 0 11.511-3.09 11.953-10.39l-5.56-5.561c-3.49.22-5.963 1.185-7.567 2.794-1.409 1.407-2.428 3.066-3.228 5.126-.6 1.542-.63 1.654-1.718 6.003A41.185 41.185 0 0 1 29.322 72H36z"/>
    </defs>
    <g fill="none" fill-rule="nonzero">
        <path d="M-8-18h96v96H-8z"/>
        <path fill="#51D39A" d="M34.301 30.042l26.87-26.87a9.657 9.657 0 1 1 13.657 13.656L47.957 43.7C47.349 55.5 40.297 62 28 62H4c-5.333 0-5.333-8 0-8h8c.967 0 1.216-.356 2.12-3.969l.378-1.532c.161-.65.296-1.174.437-1.693a36.71 36.71 0 0 1 1.206-3.734c1.18-3.037 2.777-5.638 5.026-7.884 3.18-3.19 7.613-4.866 13.134-5.146zM28 54c7.9 0 11.511-3.09 11.953-10.39l-5.56-5.561c-3.49.22-5.963 1.185-7.567 2.794-1.409 1.407-2.428 3.066-3.228 5.126-.6 1.542-.63 1.654-1.718 6.003A41.185 41.185 0 0 1 21.322 54H28z"/>
        <g transform="translate(-8 -18)">
            <use fill="#38CD8B" xlink:href="#a"/>
            <use fill="#FFF" fill-opacity=".5" xlink:href="#a"/>
        </g>
        <g transform="translate(-8 -18)">
            <use fill="#38CD8B" xlink:href="#b"/>
            <use fill="#FFF" fill-opacity=".5" xlink:href="#b"/>
        </g>
    </g>
</svg>
