<?xml version="1.0" encoding="UTF-8"?>
<svg width="69px" height="69px" viewBox="0 0 69 69" version="1.1" xmlns="http://www.w3.org/2000/svg" xmlns:xlink="http://www.w3.org/1999/xlink">
    <!-- Generator: Sketch 54.1 (76490) - https://sketchapp.com -->
    <title>Group 17 Copy</title>
    <desc>Created with Sketch.</desc>
    <defs>
        <path d="M56,40 C53.790861,40 52,38.209139 52,36 C52,33.790861 53.790861,32 56,32 L68,32 C70.209139,32 72,33.790861 72,36 C72,38.209139 70.209139,40 68,40 L56,40 Z" id="path-1"></path>
        <path d="M4,40 C1.790861,40 0,38.209139 0,36 C0,33.790861 1.790861,32 4,32 L16,32 C18.209139,32 20,33.790861 20,36 C20,38.209139 18.209139,40 16,40 L4,40 Z" id="path-2"></path>
        <path d="M32,4 C32,1.790861 33.790861,0 36,0 C38.209139,0 40,1.790861 40,4 L40,16 C40,18.209139 38.209139,20 36,20 C33.790861,20 32,18.209139 32,16 L32,4 Z" id="path-3"></path>
        <path d="M9.17157288,14.8284271 C7.60947571,13.26633 7.60947571,10.73367 9.17157288,9.17157288 C10.73367,7.60947571 13.26633,7.60947571 14.8284271,9.17157288 L22.6272552,16.970401 C24.1893524,18.5324982 24.1893524,21.0651581 22.6272552,22.6272552 C21.0651581,24.1893524 18.5324982,24.1893524 16.970401,22.6272552 L9.17157288,14.8284271 Z" id="path-4"></path>
        <path d="M57.2078146,9.13578974 C58.7896742,7.5937083 61.3221288,7.62595491 62.8642103,9.20781455 C64.4062917,10.7896742 64.3740451,13.3221288 62.7921854,14.8642103 L54.7921854,22.6630384 C53.2103258,24.2051198 50.6778712,24.1728732 49.1357897,22.5910136 C47.5937083,21.0091539 47.6259549,18.4766993 49.2078146,16.9346179 L57.2078146,9.13578974 Z" id="path-5"></path>
    </defs>
    <g id="sketching" stroke="none" stroke-width="1" fill="none" fill-rule="evenodd">
        <g id="frontpage" transform="translate(-629.000000, -2177.000000)" fill-rule="nonzero">
            <g id="Group-17-Copy" transform="translate(616.000000, 2164.000000)">
                <rect id="Rectangle-Copy" x="2" y="2" width="96" height="96"></rect>
                <g id="Group-17" transform="translate(50.000000, 50.000000) rotate(-30.000000) translate(-50.000000, -50.000000) translate(14.000000, 14.000000)">
                    <path d="M40,56 L40,67.8838093 C40,70.0929483 38.209139,71.8838093 36,71.8838093 C33.790861,71.8838093 32,70.0929483 32,67.8838093 L32,56 L23.4463594,56 C23.0983055,56 22.7562769,55.9091694 22.4540815,55.7364863 C21.4950466,55.1884663 21.1618531,53.966757 21.7098731,53.0077221 L34.2635137,31.038851 C34.4406923,30.7287884 34.6976596,30.4718212 35.0077221,30.2946426 C35.966757,29.7466227 37.1884663,30.0798161 37.7364863,31.038851 L50.2901269,53.0077221 C50.46281,53.3099175 50.5536406,53.6519461 50.5536406,54 C50.5536406,55.1045695 49.6582101,56 48.5536406,56 L40,56 Z" id="Path-6" fill="#FF2E63"></path>
                    <g id="Path-2">
                        <use fill="#FF2E63" xlink:href="#path-1"></use>
                        <use fill-opacity="0.5" fill="#FFFFFF" xlink:href="#path-1"></use>
                    </g>
                    <g id="Path-2-Copy">
                        <use fill="#FF2E63" xlink:href="#path-2"></use>
                        <use fill-opacity="0.5" fill="#FFFFFF" xlink:href="#path-2"></use>
                    </g>
                    <g id="Path-2">
                        <use fill="#FF2E63" xlink:href="#path-3"></use>
                        <use fill-opacity="0.5" fill="#FFFFFF" xlink:href="#path-3"></use>
                    </g>
                    <g id="Path-4">
                        <use fill="#FF2E63" xlink:href="#path-4"></use>
                        <use fill-opacity="0.5" fill="#FFFFFF" xlink:href="#path-4"></use>
                    </g>
                    <g id="Path-5">
                        <use fill="#FF2E63" xlink:href="#path-5"></use>
                        <use fill-opacity="0.5" fill="#FFFFFF" xlink:href="#path-5"></use>
                    </g>
                </g>
            </g>
        </g>
    </g>
</svg>
