<?xml version="1.0" encoding="UTF-8"?>
<svg width="80px" height="72px" viewBox="0 0 80 72" version="1.1" xmlns="http://www.w3.org/2000/svg" xmlns:xlink="http://www.w3.org/1999/xlink">
    <!-- Generator: Sketch 54.1 (76490) - https://sketchapp.com -->
    <title>Group 15</title>
    <desc>Created with Sketch.</desc>
    <defs>
        <rect id="path-1" x="16" y="20" width="64" height="44"></rect>
    </defs>
    <g id="sketching" stroke="none" stroke-width="1" fill="none" fill-rule="evenodd">
        <g id="frontpage" transform="translate(-945.000000, -2178.000000)" fill-rule="nonzero">
            <g id="Group-15" transform="translate(937.000000, 2166.000000)">
                <rect id="Rectangle" x="0" y="0" width="96" height="96"></rect>
                <path d="M16,20 L16,64 L80,64 L80,20 L16,20 Z M60,72 L60,76 L70,76 C71.1045695,76 72,76.8954305 72,78 L72,82 C72,83.1045695 71.1045695,84 70,84 L26,84 C24.8954305,84 24,83.1045695 24,82 L24,78 C24,76.8954305 24.8954305,76 26,76 L36,76 L36,72 L16,72 C11.581722,72 8,68.418278 8,64 L8,20 C8,15.581722 11.581722,12 16,12 L80,12 C84.418278,12 88,15.581722 88,20 L88,64 C88,68.418278 84.418278,72 80,72 L60,72 Z" id="Rectangle" fill="#009BCE"></path>
                <g id="Rectangle">
                    <use fill="#009BCE" xlink:href="#path-1"></use>
                    <use fill-opacity="0.5" fill="#FFFFFF" xlink:href="#path-1"></use>
                </g>
            </g>
        </g>
    </g>
</svg>
